<svg width="128" height="128" viewBox="0 0 128 128" fill="none" xmlns="http://www.w3.org/2000/svg">
<style>
  path { fill: #050505; }
  @media (prefers-color-scheme: dark) {
    path { fill: #FFFCD7; }
  }
</style>
<g clip-path="url(#clip0)">
<path d="M37.5625 65.1719C36.0391 66.543 34.5156 67.1016 32.9922 66.8477C30.3516 66.3906 29.0312 64.8164 29.0312 62.125C29.0312 59.8906 29.8438 57.834 31.4688 55.9551C33.2461 53.873 35.2266 53.0352 37.4102 53.4414C39.6953 53.8477 40.8379 55.2441 40.8379 57.6309C40.8379 60.6777 39.7461 63.1914 37.5625 65.1719ZM59.957 22.8203H60.7188C63.918 24.0898 73.7695 29.752 90.2734 39.8066C96.1133 43.209 99.2871 45.4434 99.7949 46.5098V47.2715C99.7949 48.998 95.4531 55.2949 86.7695 66.1621L84.7891 67C81.7422 66.1875 78.5938 65.7812 75.3438 65.7812H71.3828L62.3184 66.6191V67.3809C67.6504 71.1387 75.1406 75.8613 84.7891 81.5488C88.6992 85.0527 90.6543 87.8203 90.6543 89.8516V90.6133L76.1055 107.98H75.7246C75.7246 103.258 70.7227 98.6621 60.7188 94.1934C49.1406 87.7949 43.3516 83.707 43.3516 81.9297C42.8945 81.9297 42.6406 81.0156 42.5898 79.1875V78.0449C42.5898 73.7793 45.6113 65.3496 51.6543 52.7559C49.0137 50.6738 47.6934 48.8457 47.6934 47.2715V46.8906C47.6934 44.9102 51.1211 37.4199 57.9766 24.4199L59.957 22.8203Z"/>
</g>
<defs>
<clipPath id="clip0">
<rect width="128" height="128" fill="white"/>
</clipPath>
</defs>
</svg>
