<svg width="128" height="128" viewBox="0 0 128 128" fill="none" xmlns="http://www.w3.org/2000/svg">
<g clip-path="url(#clip0_2003_5)">
<path d="M18.9887 86.309C16.1327 86.309 14.8634 85.357 15.1807 83.453C16.0534 80.0417 16.7674 76.5907 17.3227 73.1C17.9574 69.53 18.2747 66.1187 18.2747 62.866C18.2747 58.6613 17.9971 55.607 17.4417 53.703C16.9657 51.7197 16.2914 50.371 15.4187 49.657C14.5461 48.8637 13.4751 48.2687 12.2057 47.872C11.6504 47.634 11.1347 47.3167 10.6587 46.92C10.2621 46.5233 10.0637 45.968 10.0637 45.254C10.0637 44.1433 10.5001 42.9137 11.3727 41.565C12.2454 40.2163 13.4751 39.066 15.0617 38.114C16.7277 37.0827 18.5921 36.567 20.6547 36.567C23.3521 36.567 25.2164 37.519 26.2477 39.423C27.2791 41.2477 27.7947 43.6673 27.7947 46.682C27.7947 48.6653 27.5964 50.8867 27.1997 53.346C26.8031 55.8053 26.4064 58.0267 26.0097 60.01L26.2477 60.129C27.5171 55.9243 29.0641 52.037 30.8887 48.467C32.7927 44.897 35.0537 42.0013 37.6717 39.78C40.3691 37.5587 43.4631 36.448 46.9537 36.448C50.5237 36.448 53.3401 37.6777 55.4027 40.137C57.4654 42.517 58.4967 46.0473 58.4967 50.728V53.346C60.7974 48.5067 63.5741 44.4607 66.8267 41.208C70.1587 37.9553 74.1651 36.329 78.8457 36.329C82.6537 36.329 85.6287 37.5983 87.7707 40.137C89.9127 42.6757 90.9837 45.849 90.9837 49.657C90.9837 51.1643 90.8251 52.632 90.5077 54.06C90.1904 55.4087 89.8334 56.7573 89.4367 58.106C89.1194 59.3753 88.8021 60.6843 88.4847 62.033C88.1674 63.3817 88.0087 64.7303 88.0087 66.079C88.0087 70.839 90.0317 73.933 94.0777 75.361C94.6331 75.599 95.0694 75.8767 95.3867 76.194C95.7041 76.432 95.8627 76.908 95.8627 77.622C95.8627 78.336 95.6247 79.3673 95.1487 80.716C94.7521 82.0647 93.9191 83.334 92.6497 84.524C91.3804 85.6347 89.5557 86.19 87.1757 86.19C84.0817 86.19 81.7017 85.0793 80.0357 82.858C78.3697 80.5573 77.5367 77.6617 77.5367 74.171C77.5367 72.4257 77.6954 70.601 78.0127 68.697C78.3301 66.793 78.7267 64.9683 79.2027 63.223C79.5994 61.6363 79.9167 60.129 80.1547 58.701C80.4721 57.273 80.6307 56.0433 80.6307 55.012C80.6307 53.108 80.1547 51.7197 79.2027 50.847C78.3301 49.9743 77.1401 49.538 75.6327 49.538C73.0941 49.538 70.7934 50.3313 68.7307 51.918C66.7474 53.5047 64.9624 55.5673 63.3757 58.106C61.8684 60.6447 60.5594 63.4213 59.4487 66.436C59.5281 67.15 59.5677 68.102 59.5677 69.292C59.6471 70.4027 59.6867 71.3943 59.6867 72.267C59.6867 73.7743 59.5677 75.361 59.3297 77.027C59.1711 78.693 58.8141 80.0813 58.2587 81.192C57.6241 82.6993 56.6721 83.929 55.4027 84.881C54.2127 85.833 52.5864 86.309 50.5237 86.309C49.6511 86.309 48.8181 86.1107 48.0247 85.714C47.2314 85.3967 46.8347 84.8413 46.8347 84.048C46.8347 83.7307 47.0727 82.3423 47.5487 79.883C48.0247 77.3443 48.5007 74.2503 48.9767 70.601C49.4527 66.9517 49.6907 63.3817 49.6907 59.891C49.6907 56.083 49.2941 53.465 48.5007 52.037C47.7074 50.5297 46.5174 49.776 44.9307 49.776C42.9474 49.776 41.0434 50.609 39.2187 52.275C37.4734 53.941 35.8471 56.083 34.3397 58.701C32.9117 61.319 31.6424 64.056 30.5317 66.912C29.5004 69.768 28.6674 72.4257 28.0327 74.885V76.194C28.0327 79.1293 27.1997 81.549 25.5337 83.453C23.9471 85.357 21.7654 86.309 18.9887 86.309ZM113.311 86.071C111.09 86.071 109.265 85.357 107.837 83.929C106.488 82.501 105.814 80.6763 105.814 78.455C105.814 76.1543 106.568 74.2503 108.075 72.743C109.582 71.2357 111.526 70.482 113.906 70.482C116.127 70.482 117.912 71.1563 119.261 72.505C120.61 73.8537 121.284 75.6387 121.284 77.86C121.284 80.24 120.53 82.2233 119.023 83.81C117.516 85.3173 115.612 86.071 113.311 86.071Z" fill="#FFFCD7"/>
</g>
<defs>
<clipPath id="clip0_2003_5">
<rect width="128" height="128" fill="white"/>
</clipPath>
</defs>
</svg>
